<svg version="1.1" id="Layer_1" xmlns="http://www.w3.org/2000/svg" xmlns:xlink="http://www.w3.org/1999/xlink" width="520px" height="520px" xml:space="preserve">
<g>
	<g>
		<g>
			<path d="M256,0C114.844,0,0,114.844,0,256s114.844,256,256,256s256-114.844,256-256S397.156,0,256,0z M256,469.333
				c-117.635,0-213.333-95.698-213.333-213.333S138.365,42.667,256,42.667S469.333,138.365,469.333,256S373.635,469.333,256,469.333
				z"/>
			<path d="M379.448,118.24l-170.885,85.552c-2.063,1.031-3.74,2.708-4.771,4.771L118.24,379.448c-2.052,4.104-1.25,9.063,2,12.313
				c2.052,2.052,4.781,3.125,7.542,3.125c1.625,0,3.26-0.365,4.771-1.125l170.885-85.552c2.063-1.031,3.74-2.708,4.771-4.771
				l85.552-170.885c2.052-4.104,1.25-9.063-2-12.313C388.521,116.99,383.531,116.198,379.448,118.24z M256,277.333
				c-11.76,0-21.333-9.573-21.333-21.333s9.573-21.333,21.333-21.333s21.333,9.573,21.333,21.333S267.76,277.333,256,277.333z"/>
		</g>
	</g>
</g>
</svg>
