<?xml version="1.0" encoding="UTF-8"?><!DOCTYPE svg PUBLIC "-//W3C//DTD SVG 1.1//EN" "http://www.w3.org/Graphics/SVG/1.1/DTD/svg11.dtd"><svg xmlns="http://www.w3.org/2000/svg" xmlns:xlink="http://www.w3.org/1999/xlink"><symbol id="icon-arrow-bottom" viewBox="0 0 250 250">
    <path d="M225.813 48.907L128 146.72 30.187 48.907 0 79.093l128 128 128-128z"/>
</symbol><symbol id="icon-arrow-left" viewBox="0 0 512 512">
    <path d="M451.111 193.333H128.889L241.667 80.556l-48.333-48.333L0 225.556l193.333 193.333 48.333-48.333-112.777-112.778h322.222z"/>
</symbol><symbol id="icon-arrow-right" viewBox="0 0 530 530">
    <path d="M465.875 215.583c-32.896-18.021-76.198-42.958-122.031-69.375C256.396 95.833 157.281 38.729 87.375 4.646 81.01 1.563 74.281 0 67.385 0 41.99 0 21.333 20.521 21.333 45.729L21.354 256l-.021 210.25c0 25.229 20.656 45.75 46.052 45.75 6.927 0 13.656-1.583 20.021-4.688 69.948-34.104 169.177-91.271 256.719-141.708 45.729-26.354 88.917-51.229 121.75-69.229 15.521-8.5 24.792-23.604 24.792-40.396 0-16.791-9.271-31.896-24.792-40.396z"/>
</symbol><symbol id="icon-close" viewBox="0 0 520 520">
    <path d="M300.188 246L484.14 62.04c5.06-5.064 7.852-11.82 7.86-19.024 0-7.208-2.792-13.972-7.86-19.028L468.02 7.872C462.952 2.796 456.196.016 448.984.016c-7.2 0-13.956 2.78-19.024 7.856L246.008 191.82 62.048 7.872C56.988 2.796 50.228.016 43.02.016c-7.2 0-13.96 2.78-19.02 7.856L7.872 23.988c-10.496 10.496-10.496 27.568 0 38.052L191.828 246 7.872 429.952C2.808 435.024.02 441.78.02 448.984c0 7.204 2.788 13.96 7.852 19.028l16.124 16.116c5.06 5.072 11.824 7.856 19.02 7.856 7.208 0 13.968-2.784 19.028-7.856l183.96-183.952 183.952 183.952c5.068 5.072 11.824 7.856 19.024 7.856h.008c7.204 0 13.96-2.784 19.028-7.856l16.12-16.116c5.06-5.064 7.852-11.824 7.852-19.028 0-7.204-2.792-13.96-7.852-19.028L300.188 246z"/>
</symbol><symbol id="icon-event" viewBox="0 0 520 520">
    <path d="M388.749 47.038a38.674 38.674 0 0 0-2.66-.017h-33.437V18.286C352.653 6.792 341.681 0 330.187 0h-30.824c-11.494 0-19.853 6.792-19.853 18.286V47.02H154.122V18.286C154.122 6.792 145.763 0 134.269 0h-30.825C91.951 0 80.979 6.792 80.979 18.286V47.02H47.543C26.199 46.425 8.414 63.246 7.819 84.589c-.025.886-.019 1.774.017 2.66v301.975c0 22.988 16.718 44.408 39.706 44.408H386.09c22.988 0 39.706-21.42 39.706-44.408V87.249c.874-21.334-15.713-39.337-37.047-40.211zm-89.386-26.14h32.392v57.469h-32.392V20.898zm-195.918 0h29.78v57.469h-29.78V20.898zm301.453 368.326c0 11.494-7.314 23.51-18.808 23.51H47.543c-11.494 0-18.808-12.016-18.808-23.51v-222.04h376.163v222.04zm0-301.975v59.037H28.734V87.249c-.885-9.77 6.318-18.408 16.088-19.293a17.77 17.77 0 0 1 2.72-.037h33.437v11.494c0 11.494 10.971 19.853 22.465 19.853h30.825c10.672.293 19.56-8.122 19.853-18.794.01-.353.01-.706 0-1.059V67.918H279.51v11.494c-.293 10.672 8.122 19.56 18.794 19.853.353.01.706.01 1.059 0h30.825c11.494 0 22.465-8.359 22.465-19.853V67.918h33.437c9.791-.617 18.228 6.82 18.845 16.611a17.77 17.77 0 0 1-.037 2.72z"/>
    <path d="M158.824 309.812l-9.404 52.245a10.453 10.453 0 0 0 1.049 6.556c2.675 5.113 8.989 7.09 14.102 4.415l47.02-24.555 47.02 24.555 4.702 1.045a9.925 9.925 0 0 0 6.269-2.09 10.45 10.45 0 0 0 4.18-9.927l-9.404-52.245 38.139-36.571a11.49 11.49 0 0 0 2.612-10.971 10.973 10.973 0 0 0-8.359-6.792l-52.245-7.837-23.51-47.543a10.444 10.444 0 0 0-4.849-4.849c-5.194-2.515-11.443-.344-13.959 4.849l-23.51 47.543-52.245 7.837a10.971 10.971 0 0 0-8.359 6.792 11.493 11.493 0 0 0 2.612 10.971l38.139 36.572zm28.735-42.318a9.402 9.402 0 0 0 7.314-5.747l16.718-33.437 16.718 33.437a9.403 9.403 0 0 0 7.314 5.747l37.094 5.224-26.645 25.6a10.973 10.973 0 0 0-3.135 9.404l6.269 37.094-32.914-17.763-4.702-1.045-4.702 1.045-32.914 17.763 6.269-37.094a10.97 10.97 0 0 0-3.135-9.404l-26.645-25.6 37.096-5.224z"/>
</symbol><symbol id="icon-expand" viewBox="0 0 71 71">
    <path d="M54 8H43a2 2 0 0 0 0 4h6.172L34.586 26.586a2 2 0 1 0 2.828 2.828L52 14.828V21a2 2 0 0 0 4 0V10a2 2 0 0 0-2-2z"/>
    <path d="M54 41a2 2 0 0 0-2 2v6.172L37.414 34.586a2 2 0 1 0-2.828 2.828L49.172 52H43a2 2 0 0 0 0 4h11a2 2 0 0 0 2-2V43a2 2 0 0 0-2-2z"/>
    <path d="M14.828 12H21a2 2 0 0 0 0-4H10a2 2 0 0 0-2 2v11a2 2 0 0 0 4 0v-6.172l14.586 14.586c.391.391.902.586 1.414.586s1.023-.195 1.414-.586a2 2 0 0 0 0-2.828z"/>
    <path d="M26.586 34.586L12 49.172V43a2 2 0 0 0-4 0v11a2 2 0 0 0 2 2h11a2 2 0 0 0 0-4h-6.172l14.586-14.586a2 2 0 1 0-2.828-2.828z"/>
</symbol><symbol id="icon-home" viewBox="0 0 511 511">
    <path d="M498.7 222.695c-.016-.011-.028-.027-.04-.039L289.805 13.81C280.902 4.902 269.066 0 256.477 0c-12.59 0-24.426 4.902-33.332 13.809L14.398 222.55c-.07.07-.144.144-.21.215-18.282 18.386-18.25 48.218.09 66.558 8.378 8.383 19.44 13.235 31.273 13.746.484.047.969.07 1.457.07h8.32v153.696c0 30.418 24.75 55.164 55.168 55.164h81.711c8.285 0 15-6.719 15-15V376.5c0-13.879 11.293-25.168 25.172-25.168h48.195c13.88 0 25.168 11.29 25.168 25.168V497c0 8.281 6.715 15 15 15h81.711c30.422 0 55.168-24.746 55.168-55.164V303.14h7.719c12.586 0 24.422-4.903 33.332-13.813 18.36-18.367 18.367-48.254.027-66.633zm-21.243 45.422a17.03 17.03 0 0 1-12.117 5.024H442.62c-8.285 0-15 6.714-15 15v168.695c0 13.875-11.289 25.164-25.168 25.164h-66.71V376.5c0-30.418-24.747-55.168-55.169-55.168H232.38c-30.422 0-55.172 24.75-55.172 55.168V482h-66.71c-13.876 0-25.169-11.29-25.169-25.164V288.14c0-8.286-6.715-15-15-15H48a13.9 13.9 0 0 0-.703-.032c-4.469-.078-8.66-1.851-11.8-4.996-6.68-6.68-6.68-17.55 0-24.234.003 0 .003-.004.007-.008l.012-.012L244.363 35.02A17.003 17.003 0 0 1 256.477 30c4.574 0 8.875 1.781 12.113 5.02l208.8 208.796.098.094c6.645 6.692 6.633 17.54-.031 24.207zm0 0"/>
</symbol><symbol id="icon-information" viewBox="0 0 520 520">
    <path d="M256 0C114.497 0 0 114.507 0 256c0 141.503 114.507 256 256 256 141.503 0 256-114.507 256-256C512 114.497 397.492 0 256 0zm0 472c-119.393 0-216-96.615-216-216 0-119.393 96.615-216 216-216 119.393 0 216 96.615 216 216 0 119.393-96.616 216-216 216z"/>
    <path d="M256 214.33c-11.046 0-20 8.954-20 20v128.793c0 11.046 8.954 20 20 20s20-8.955 20-20.001V234.33c0-11.046-8.954-20-20-20z"/>
    <circle cx="256" cy="162.84" r="27"/>
</symbol><symbol id="icon-location" viewBox="0 0 520 520">
    <path d="M256 0C114.844 0 0 114.844 0 256s114.844 256 256 256 256-114.844 256-256S397.156 0 256 0zm0 469.333c-117.635 0-213.333-95.698-213.333-213.333S138.365 42.667 256 42.667 469.333 138.365 469.333 256 373.635 469.333 256 469.333z"/>
    <path d="M379.448 118.24l-170.885 85.552a10.671 10.671 0 0 0-4.771 4.771L118.24 379.448a10.666 10.666 0 0 0 2 12.313 10.656 10.656 0 0 0 7.542 3.125 10.6 10.6 0 0 0 4.771-1.125l170.885-85.552a10.671 10.671 0 0 0 4.771-4.771l85.552-170.885a10.666 10.666 0 0 0-2-12.313c-3.24-3.25-8.23-4.042-12.313-2zM256 277.333c-11.76 0-21.333-9.573-21.333-21.333s9.573-21.333 21.333-21.333 21.333 9.573 21.333 21.333-9.573 21.333-21.333 21.333z"/>
</symbol><symbol id="icon-logout" viewBox="0 0 512 512">
    <path d="M496 240.008H293.332c-8.832 0-16-7.168-16-16s7.168-16 16-16H496c8.832 0 16 7.168 16 16s-7.168 16-16 16zm0 0"/>
    <path d="M416 320.008a15.89 15.89 0 0 1-11.309-4.692c-6.25-6.253-6.25-16.386 0-22.636l68.696-68.692-68.696-68.695c-6.25-6.25-6.25-16.383 0-22.633 6.254-6.254 16.387-6.254 22.637 0l80 80c6.25 6.25 6.25 16.383 0 22.633l-80 80A15.896 15.896 0 0 1 416 320.008zm0 0"/>
    <path d="M170.668 512.008c-4.566 0-8.898-.64-13.227-1.985L29.055 467.25C11.585 461.148 0 444.871 0 426.676v-384C0 19.145 19.137.008 42.668.008c4.562 0 8.895.64 13.227 1.984l128.382 42.774c17.473 6.101 29.055 22.379 29.055 40.574v384c0 23.531-19.133 42.668-42.664 42.668zm-128-480c-5.867 0-10.668 4.8-10.668 10.668v384c0 4.543 3.05 8.765 7.402 10.281l127.785 42.582c.918.297 2.114.469 3.481.469 5.867 0 10.664-4.801 10.664-10.668v-384c0-4.543-3.05-8.766-7.402-10.281L46.145 32.477c-.918-.297-2.114-.47-3.477-.47zm0 0"/>
    <path d="M325.332 170.676c-8.832 0-16-7.168-16-16v-96c0-14.7-11.965-26.668-26.664-26.668h-240c-8.832 0-16-7.168-16-16s7.168-16 16-16h240c32.363 0 58.664 26.305 58.664 58.668v96c0 8.832-7.168 16-16 16zm0 0"/>
    <path d="M282.668 448.008h-85.336c-8.832 0-16-7.168-16-16s7.168-16 16-16h85.336c14.7 0 26.664-11.969 26.664-26.668v-96c0-8.832 7.168-16 16-16s16 7.168 16 16v96c0 32.363-26.3 58.668-58.664 58.668zm0 0"/>
</symbol><symbol id="icon-pencil" viewBox="0 0 528 528">
    <path d="M328.883 89.125l107.59 107.589-272.34 272.34L56.604 361.465l272.279-272.34zm189.23-25.948l-47.981-47.981c-18.543-18.543-48.653-18.543-67.259 0l-45.961 45.961 107.59 107.59 53.611-53.611c14.382-14.383 14.382-37.577 0-51.959zM.3 512.69c-1.958 8.812 5.998 16.708 14.811 14.565l119.891-29.069L27.473 390.597.3 512.69z"/>
</symbol><symbol id="icon-search" viewBox="0 0 475 475">
    <path d="M464.524 412.846l-97.929-97.925c23.6-34.068 35.406-72.047 35.406-113.917 0-27.218-5.284-53.249-15.852-78.087-10.561-24.842-24.838-46.254-42.825-64.241-17.987-17.987-39.396-32.264-64.233-42.826C254.246 5.285 228.217.003 200.999.003c-27.216 0-53.247 5.282-78.085 15.847C98.072 26.412 76.66 40.689 58.673 58.676c-17.989 17.987-32.264 39.403-42.827 64.241C5.282 147.758 0 173.786 0 201.004c0 27.216 5.282 53.238 15.846 78.083 10.562 24.838 24.838 46.247 42.827 64.234 17.987 17.993 39.403 32.264 64.241 42.832 24.841 10.563 50.869 15.844 78.085 15.844 41.879 0 79.852-11.807 113.922-35.405l97.929 97.641c6.852 7.231 15.406 10.849 25.693 10.849 9.897 0 18.467-3.617 25.694-10.849 7.23-7.23 10.848-15.796 10.848-25.693.003-10.082-3.518-18.651-10.561-25.694zM291.363 291.358c-25.029 25.033-55.148 37.549-90.364 37.549-35.21 0-65.329-12.519-90.36-37.549-25.031-25.029-37.546-55.144-37.546-90.36 0-35.21 12.518-65.334 37.546-90.36 25.026-25.032 55.15-37.546 90.36-37.546 35.212 0 65.331 12.519 90.364 37.546 25.033 25.026 37.548 55.15 37.548 90.36 0 35.216-12.519 65.331-37.548 90.36z"/>
</symbol><symbol id="icon-star" viewBox="0 0 511 511">
    <path d="M510.652 185.883a27.177 27.177 0 0 0-23.402-18.688l-147.797-13.418-58.41-136.75C276.73 6.98 266.918.497 255.996.497s-20.738 6.483-25.023 16.53l-58.41 136.75-147.82 13.418c-10.837 1-20.013 8.34-23.403 18.688a27.25 27.25 0 0 0 7.937 28.926L121 312.773 88.059 457.86c-2.41 10.668 1.73 21.7 10.582 28.098a27.087 27.087 0 0 0 15.957 5.184 27.14 27.14 0 0 0 13.953-3.86l127.445-76.203 127.422 76.203a27.197 27.197 0 0 0 29.934-1.324c8.851-6.398 12.992-17.43 10.582-28.098l-32.942-145.086 111.723-97.964a27.246 27.246 0 0 0 7.937-28.926zM258.45 409.605"/>
</symbol><symbol id="icon-user" viewBox="0 0 520 520">
    <path d="M510.702 438.722c-2.251-10.813-12.84-17.754-23.657-15.503-10.814 2.251-17.755 12.843-15.503 23.656 1.297 6.229-.248 12.613-4.236 17.519-2.31 2.841-7.461 7.606-15.999 7.606H60.693c-8.538 0-13.689-4.766-15.999-7.606-3.989-4.905-5.533-11.29-4.236-17.519 20.756-99.695 108.691-172.521 210.24-174.977a137.229 137.229 0 0 0 10.624-.001c71.532 1.716 137.648 37.947 177.687 97.66 6.151 9.175 18.574 11.625 27.75 5.474 9.174-6.151 11.625-18.575 5.473-27.749-32.817-48.944-80.47-84.534-134.804-102.417C370.538 220.036 392 180.477 392 136 392 61.01 330.991 0 256 0S120 61.01 120 136c0 44.504 21.488 84.084 54.633 108.911-30.368 9.998-58.863 25.555-83.803 46.069-45.732 37.617-77.529 90.086-89.532 147.742-3.762 18.067.745 36.623 12.363 50.909C25.222 503.847 42.365 512 60.693 512h390.613c18.329 0 35.472-8.153 47.032-22.369 11.62-14.286 16.126-32.842 12.364-50.909zM160 136c0-52.935 43.065-96 96-96s96 43.065 96 96c0 51.305-40.455 93.339-91.141 95.878a261.967 261.967 0 0 0-9.699.001C200.465 229.35 160 187.312 160 136z"/>
</symbol></svg>